# xmcd
#
# Track frame offsets: 
#        150
#        17897
#        34060
#        47077
#        62162
#        78325
#        97605
#        114532
#        131717
#        143305
#        158195
#        173935
#        189015
#        208857
#
# Disc length: 3003 seconds
#
# Revision: 0
# Processed by: cddbd v1.5.2PL0 Copyright (c) Steve Scherf et al.
# Submitted via: ExactAudioCopyFreeDBPlugin 1.0
#
DISCID=b10bb90e
DTITLE=Nashville Session Singers - Country Hunks - Male Hits of the 90
DTITLE='s
DYEAR=1997
DGENRE=Country
TTITLE0=Gone Country
TTITLE1=American Honky Tonk Bar Association
TTITLE2=Papa Loved Mama
TTITLE3=Before You Kiss Us All
TTITLE4=God Bless Texas
TTITLE5=You're Gonna Miss Me When I'm Gone
TTITLE6=Livin' On Love
TTITLE7=Standing Outside the Fire
TTITLE8=Whatcha Gonna Do With a Cowboy
TTITLE9=Third Rate Romance
TTITLE10=Fast As You
TTITLE11=Queen of My Double-Wide Trailer
TTITLE12=Whenever You Come Around
TTITLE13=That Ain't No Way to Go
EXTD=Cat: MARC944 Bar: 9399238094426
EXTT0=
EXTT1=
EXTT2=
EXTT3=
EXTT4=
EXTT5=
EXTT6=
EXTT7=
EXTT8=
EXTT9=
EXTT10=
EXTT11=
EXTT12=
EXTT13=
PLAYORDER=
